<svg width="42" height="42" viewBox="0 0 42 42" fill="none" xmlns="http://www.w3.org/2000/svg">
<circle cx="21" cy="21" r="20.5" stroke="#2F5A50"/>
<path d="M21.548 15.3524C21.4363 15.4639 21.3477 15.5963 21.2872 15.742C21.2267 15.8877 21.1956 16.044 21.1956 16.2018C21.1956 16.3596 21.2267 16.5158 21.2872 16.6616C21.3477 16.8073 21.4363 16.9397 21.548 17.0511L24.3 19.8007H15.1996C14.8814 19.8007 14.5763 19.9271 14.3513 20.152C14.1263 20.377 14 20.6822 14 21.0003C14 21.3185 14.1263 21.6236 14.3513 21.8486C14.5763 22.0736 14.8814 22.1999 15.1996 22.1999H24.3L21.548 24.9495C21.3228 25.1748 21.1962 25.4803 21.1962 25.7989C21.1962 26.1174 21.3228 26.4229 21.548 26.6482C21.7733 26.8735 22.0788 27 22.3974 27C22.716 27 23.0215 26.8735 23.2467 26.6482L28.0453 21.8497C28.157 21.7382 28.2456 21.6058 28.3061 21.4601C28.3666 21.3144 28.3977 21.1581 28.3977 21.0003C28.3977 20.8425 28.3666 20.6863 28.3061 20.5405C28.2456 20.3948 28.157 20.2624 28.0453 20.151L23.2467 15.3524C23.1353 15.2407 23.0029 15.1521 22.8572 15.0916C22.7114 15.0311 22.5552 15 22.3974 15C22.2396 15 22.0834 15.0311 21.9376 15.0916C21.7919 15.1521 21.6595 15.2407 21.548 15.3524Z" fill="#2F5A50"/>
</svg>
