<svg width="40" height="40" viewBox="0 0 40 40" fill="none" xmlns="http://www.w3.org/2000/svg">
<g clip-path="url(#clip0_166_232)">
<path d="M1.25066 39.1667C1.16911 39.1655 1.08968 39.1405 1.02223 39.0946C0.954788 39.0488 0.902282 38.9841 0.871228 38.9087C0.840174 38.8333 0.831937 38.7504 0.847537 38.6704C0.863138 38.5903 0.901891 38.5166 0.958991 38.4584L38.459 0.958354C38.5375 0.879894 38.6439 0.835815 38.7548 0.835815C38.8658 0.835815 38.9722 0.879894 39.0507 0.958354C39.1291 1.03681 39.1732 1.14323 39.1732 1.25419C39.1732 1.36515 39.1291 1.47156 39.0507 1.55002L1.55066 39.05C1.51089 39.0884 1.46388 39.1185 1.41238 39.1385C1.36088 39.1585 1.3059 39.1681 1.25066 39.1667Z" fill="white"/>
<path d="M38.7501 39.1667C38.6402 39.1651 38.5354 39.1202 38.4585 39.0417L0.958476 1.54166C0.880016 1.4632 0.835938 1.35678 0.835938 1.24583C0.835938 1.13487 0.880016 1.02845 0.958476 0.949992C1.03694 0.871532 1.14335 0.827454 1.25431 0.827454C1.36527 0.827454 1.47168 0.871532 1.55014 0.949992L39.0501 38.45C39.1107 38.5083 39.1522 38.5835 39.1692 38.6657C39.1862 38.748 39.1779 38.8335 39.1455 38.911C39.113 38.9885 39.0579 39.0544 38.9874 39.1C38.9168 39.1456 38.8341 39.1689 38.7501 39.1667Z" fill="white"/>
</g>
<defs>
<clipPath id="clip0_166_232">
<rect width="40" height="40" fill="white"/>
</clipPath>
</defs>
</svg>
