<svg width="104" height="37" viewBox="0 0 104 37" fill="none" xmlns="http://www.w3.org/2000/svg">
<path fill-rule="evenodd" clip-rule="evenodd" d="M14.7288 36H3.0509L6.42307 20.2302C4.97205 20.0933 3.51904 19.6525 2.33484 18.6437L2.3135 18.6256L2.29251 18.607C0.750073 17.2425 0.240234 15.354 0.240234 13.56C0.240234 11.416 0.93293 9.41528 2.15147 7.60487L2.15856 7.59434C3.38228 5.79275 5.00901 4.28967 6.96288 3.06062L6.98234 3.04838L7.00199 3.03643C8.61071 2.05858 10.3596 1.31274 12.2349 0.790127L12.2469 0.786764C14.1616 0.261769 16.1219 0 18.1202 0C22.1601 0 25.6813 1.23848 28.2207 4.06257C29.7593 5.7386 30.7574 7.74818 31.2991 10H41.6979L41.6921 10.0278C41.9006 10.0094 42.1112 10 42.3237 10C43.3101 10 44.2551 10.2279 45.0953 10.6938L45.2423 10H45.9121C45.6213 9.27676 45.4734 8.49635 45.4734 7.68C45.4734 6.02794 46.0792 4.52303 47.2495 3.34137C48.421 2.13054 49.9395 1.48 51.6334 1.48C53.3165 1.48 54.8265 2.12233 55.995 3.31844C57.1911 4.48688 57.8334 5.99686 57.8334 7.68C57.8334 8.50106 57.6805 9.2809 57.3851 10H66.3128C66.8729 9.89264 67.4448 9.84 68.0249 9.84C69.991 9.84 71.9391 10.3916 73.4262 11.8787C74.1139 12.5663 74.5985 13.3549 74.9221 14.1976L77.2865 3.10973L89.5227 1.45619L87.3638 11.5885L89.3807 10H103.953L93.0455 17.5811C93.0658 17.6028 93.0861 17.6247 93.1063 17.6468C94.4628 19.1039 95.0523 20.9276 95.0974 22.84H102.077L100.743 26.7979C99.8354 29.4919 98.6207 31.8059 96.9642 33.4984L96.953 33.5099L96.9416 33.5213C95.1937 35.2692 93.0193 36.24 90.5402 36.24C88.4676 36.24 86.408 35.7466 84.7999 34.3335L84.7636 34.3016L84.7284 34.2686C83.9592 33.5475 83.4155 32.7095 83.0577 31.8042L82.1744 36H71.8569C71.1809 36.1591 70.4756 36.24 69.7449 36.24C67.7138 36.24 65.7169 35.6844 64.1787 34.1958L64.161 34.1787L64.1436 34.1613C63.5593 33.5771 63.1078 32.9264 62.7747 32.2296L61.976 36H51.1839C50.4525 36.1593 49.6946 36.24 48.9134 36.24C46.9104 36.24 45.0043 35.5907 43.5625 34.0495L43.5285 34.0131L43.4956 33.9755C42.128 32.4125 41.6334 30.4365 41.6334 28.44C41.6334 27.947 41.6707 27.437 41.7352 26.9185C41.8004 26.3679 41.8957 25.8017 42.0177 25.222L42.7215 21.8999C42.5499 21.9133 42.3772 21.92 42.2037 21.92C41.3251 21.92 40.2772 21.718 39.3512 21.0215L36.1979 36H24.301L24.8798 33.27C24.6963 33.4514 24.5092 33.6274 24.3183 33.7978L24.3071 33.8078L24.2957 33.8177C22.403 35.4739 20.1948 36.52 17.7202 36.52C16.6941 36.52 15.6933 36.3354 14.7288 36ZM15.5576 33.11C16.289 33.3833 17.0099 33.52 17.7202 33.52C19.2936 33.52 20.8269 32.8667 22.3202 31.56C23.8136 30.2267 25.1069 28.3867 26.2002 26.04C26.3384 25.7502 26.4714 25.4567 26.5992 25.1595C27.2357 23.6788 27.7427 22.1056 28.1202 20.44C28.5531 18.5303 28.7793 16.6448 28.7989 14.7837C28.7998 14.6958 28.8002 14.6079 28.8002 14.52C28.8002 10.92 27.8669 8.10667 26.0002 6.08C25.2824 5.27898 24.4449 4.63421 23.4877 4.14567C22.986 3.88964 22.4515 3.67652 21.8841 3.50632C21.6532 3.43708 21.417 3.37493 21.1752 3.3199C20.2386 3.10663 19.2203 3 18.1202 3C17.8929 3 17.6662 3.0039 17.4402 3.0117C15.9434 3.06336 14.4767 3.28613 13.0402 3.68C11.9566 3.98201 10.9321 4.36686 9.96675 4.83456C9.87239 4.88027 9.7786 4.92678 9.68538 4.97407C9.3007 5.16924 8.92566 5.37788 8.56024 5.6C8.45833 5.6641 8.35774 5.72891 8.25847 5.79444L8.25724 5.79525C7.22325 6.47783 6.33216 7.23736 5.58399 8.07385C5.23903 8.45954 4.92444 8.86159 4.64023 9.28C3.7069 10.6667 3.24023 12.0933 3.24023 13.56C3.24023 14.6637 3.50909 15.5193 4.04679 16.1267C4.09554 16.1818 4.1465 16.2348 4.19967 16.2858C4.22598 16.311 4.25284 16.3358 4.28023 16.36C4.31559 16.3901 4.35182 16.4195 4.38891 16.4481C4.88443 16.8307 5.53488 17.0814 6.34025 17.2C6.47967 17.2205 6.62373 17.2371 6.77243 17.2498C6.78622 17.2509 6.80004 17.2521 6.81391 17.2532C6.8934 17.2595 6.9742 17.2647 7.05632 17.2688C7.16874 17.2744 7.28361 17.2779 7.40095 17.2793C7.44043 17.2798 7.48019 17.28 7.52024 17.28C7.52024 17.2533 7.5069 17.2267 7.48023 17.2C7.48023 17.1467 7.45357 17.0667 7.40023 16.96C7.33237 16.813 7.2717 16.6635 7.21822 16.5117C7.14563 16.3055 7.0863 16.095 7.04023 15.88C6.9869 15.5067 6.96023 15.0667 6.96023 14.56C6.96023 14.4577 6.9614 14.356 6.96374 14.2551C7.00231 12.5899 7.35906 11.1192 8.034 9.84288C8.28918 9.36036 8.58983 8.90563 8.93596 8.47869C9.189 8.16659 9.46634 7.86934 9.76798 7.58694C9.7768 7.57867 9.78565 7.57043 9.79452 7.56219C9.80969 7.54809 9.82493 7.53403 9.84023 7.52C9.98063 7.39114 10.1241 7.26693 10.2706 7.14737C10.8042 6.71186 11.3783 6.338 11.9929 6.02579C12.4748 5.781 12.9816 5.57411 13.5133 5.40512C13.5156 5.40436 13.518 5.40361 13.5204 5.40285C14.7038 5.02762 16.0104 4.84 17.4402 4.84C17.5835 4.84 17.7242 4.84356 17.8622 4.85069C17.9493 4.85518 18.0353 4.86109 18.1202 4.86841C19.4259 4.98097 20.4878 5.42787 21.3059 6.20914C21.4385 6.33572 21.5646 6.47107 21.6844 6.6152C21.7237 6.66252 21.7623 6.71079 21.8002 6.76C22.7869 8.01333 23.2802 9.89333 23.2802 12.4C23.2802 17.0133 22.5336 21.1067 21.0402 24.68C19.6617 28.0137 17.9768 29.7806 15.9857 29.9808C15.8584 29.9936 15.73 30 15.6002 30C15.2002 30 14.8136 29.9333 14.4402 29.8C14.3753 29.7768 14.3104 29.7516 14.2456 29.7244C13.9371 29.5951 13.6287 29.4203 13.3202 29.2L18.1202 6.76L12.2002 7.56L6.76023 33H12.5202L12.8402 31.4C13.1098 31.6261 13.378 31.8352 13.6448 32.0273C14.1896 32.4196 14.7285 32.7409 15.2616 32.9913C15.2678 32.9942 15.274 32.9971 15.2802 33C15.3729 33.0389 15.4653 33.0755 15.5576 33.11ZM20.2323 11.2285L17.1276 25.743C17.4713 25.237 17.8568 24.5277 18.2679 23.5336L18.2722 23.5232C19.5861 20.3793 20.2802 16.6907 20.2802 12.4C20.2802 11.9681 20.263 11.5789 20.2323 11.2285ZM28.0037 33H33.7637L36.9637 17.8C37.575 17.2357 38.0723 16.8476 38.4556 16.6358C38.507 16.6073 38.5564 16.5821 38.6037 16.56C39.0037 16.3733 39.4303 16.28 39.8837 16.28C40.0703 16.28 40.217 16.3467 40.3237 16.48C40.3936 16.5499 40.4578 16.6887 40.5163 16.8962C40.547 17.0052 40.5761 17.1331 40.6037 17.28C40.7103 17.9467 40.8837 18.3867 41.1237 18.6C41.3903 18.8133 41.7503 18.92 42.2037 18.92C42.6455 18.92 43.0444 18.8449 43.4004 18.6948C43.732 18.555 44.0265 18.3501 44.2837 18.08C44.817 17.52 45.0837 16.8267 45.0837 16C45.0837 15.1915 44.8563 14.5146 44.4014 13.9695C44.3762 13.9392 44.3503 13.9094 44.3237 13.88C43.817 13.2933 43.1503 13 42.3237 13C41.8913 13 41.4589 13.0674 41.0265 13.2022C40.8879 13.2455 40.7494 13.2956 40.6108 13.3526C40.5123 13.3932 40.4139 13.4372 40.3155 13.4847C40.2915 13.4963 40.2676 13.508 40.2437 13.52C40.1309 13.5741 40.0109 13.6378 39.8837 13.711C39.3735 14.0044 38.7468 14.4511 38.0037 15.0512C37.9786 15.0714 37.9534 15.0918 37.9281 15.1124C37.7842 15.2293 37.6361 15.3518 37.4837 15.48L38.0037 13H32.2437L28.0037 33ZM44.9534 25.84C44.8467 26.3467 44.7667 26.8267 44.7134 27.28C44.66 27.7067 44.6334 28.0933 44.6334 28.44C44.6334 29.96 45.0067 31.1467 45.7534 32C46.5267 32.8267 47.58 33.24 48.9134 33.24C49.5366 33.24 50.1361 33.1701 50.7118 33.0304C51.1347 32.9278 51.5449 32.7874 51.9421 32.6093C52.123 32.5282 52.3013 32.4393 52.4769 32.3426C52.9307 32.0926 53.3667 31.7904 53.7849 31.436C53.8145 31.4109 53.844 31.3856 53.8734 31.36C53.9823 31.2652 54.0895 31.1671 54.195 31.0656L53.7849 33H59.5449L62.2649 20.16C62.6116 19.0133 63.0516 18.12 63.5849 17.48C64.0214 16.9603 64.4823 16.6432 64.9674 16.5286C65.1046 16.4962 65.2438 16.48 65.3849 16.48C65.6361 16.48 65.8544 16.5275 66.0399 16.6224C66.2088 16.7089 66.3505 16.8348 66.4649 17C66.7049 17.3467 66.8249 17.8533 66.8249 18.52C66.8249 18.9733 66.7716 19.5333 66.6649 20.2C66.5583 20.8667 66.3183 21.96 65.9449 23.48C65.5716 25.0533 65.3183 26.2 65.1849 26.92C65.0783 27.64 65.0249 28.24 65.0249 28.72C65.0249 30.1067 65.4383 31.2133 66.2649 32.04C67.0916 32.84 68.2516 33.24 69.7449 33.24C70.1374 33.24 70.5168 33.2065 70.883 33.1396C71.4013 33.0449 71.8934 32.8831 72.3592 32.6543C72.5718 32.5499 72.7788 32.4316 72.9805 32.2993C73.3302 32.0699 73.6634 31.7985 73.9802 31.4852C74.0086 31.4571 74.0368 31.4287 74.0649 31.4C74.177 31.2879 74.2875 31.1706 74.3965 31.0481L73.9802 33H79.7402L81.8202 23.12C82.4602 22.5867 83.0069 22.2133 83.4602 22C83.7188 21.8707 83.9658 21.7762 84.2012 21.7166C84.4027 21.6655 84.5957 21.64 84.7802 21.64C85.2602 21.64 85.6202 21.8 85.8602 22.12C86.1002 22.44 86.2202 22.92 86.2202 23.56C86.2202 23.8267 86.2069 24.08 86.1802 24.32C86.1536 24.56 86.1136 24.8 86.0602 25.04L85.7402 26.6C85.6602 26.9733 85.5936 27.3333 85.5402 27.68C85.5136 28.0267 85.5002 28.36 85.5002 28.68C85.5002 30.1467 85.9269 31.28 86.7802 32.08C87.6602 32.8533 88.9136 33.24 90.5402 33.24C91.7066 33.24 92.7701 32.9247 93.7308 32.294C94.11 32.0451 94.4731 31.7471 94.8202 31.4C95.1976 31.0144 95.5561 30.572 95.8957 30.0728C96.153 29.6945 96.3994 29.2836 96.635 28.84C97.0116 28.1308 97.3605 27.3383 97.6815 26.4624C97.7559 26.2594 97.8288 26.0519 97.9002 25.84H96.2202C95.6069 27.28 95.0602 28.2267 94.5802 28.68C94.1002 29.1333 93.5269 29.36 92.8602 29.36C92.8329 29.36 92.8059 29.3597 92.7793 29.3591C92.7639 29.3587 92.7486 29.3582 92.7335 29.3576C92.6964 29.3562 92.6601 29.3542 92.6245 29.3515C92.2075 29.3204 91.886 29.2032 91.6602 29C91.4202 28.76 91.3002 28.3867 91.3002 27.88C91.3002 27.7733 91.3136 27.6133 91.3402 27.4C91.3936 27.1867 91.4469 26.92 91.5002 26.6L91.9402 24.6C91.9936 24.36 92.0336 24.12 92.0602 23.88C92.0869 23.6133 92.1002 23.3467 92.1002 23.08C92.1002 21.6667 91.7002 20.5333 90.9002 19.68C90.7848 19.5526 90.6628 19.4347 90.5343 19.3263C89.9476 18.8317 89.2248 18.5351 88.3658 18.4367C88.1524 18.4122 87.9305 18.4 87.7002 18.4C87.5402 18.4 87.3669 18.4133 87.1802 18.44C87.0202 18.4667 86.7536 18.5067 86.3802 18.56L94.3802 13H90.4202L82.7002 19.08L85.7002 5L79.7802 5.8L75.507 25.84H75.5049C74.8916 27.28 74.3449 28.2267 73.8649 28.68C73.3849 29.1333 72.8116 29.36 72.1449 29.36C72.1033 29.36 72.0625 29.3592 72.0225 29.3576C72.0064 29.3569 71.9905 29.3561 71.9747 29.3552C71.941 29.3533 71.9078 29.3507 71.8753 29.3476C71.8137 29.3416 71.7542 29.3335 71.6968 29.3233C71.3814 29.2669 71.1308 29.1459 70.9449 28.96C70.6783 28.6667 70.5449 28.24 70.5449 27.68C70.5449 27.3067 70.5983 26.84 70.7049 26.28C70.8116 25.72 71.0383 24.76 71.3849 23.4C71.8116 21.6667 72.0916 20.3867 72.2249 19.56C72.3849 18.7067 72.4649 17.9733 72.4649 17.36C72.4649 15.8933 72.0783 14.7733 71.3049 14C70.5316 13.2267 69.4383 12.84 68.0249 12.84C67.6243 12.84 67.2366 12.8765 66.862 12.9494C66.4081 13.0377 65.9732 13.1796 65.5575 13.375C65.5399 13.3832 65.5224 13.3916 65.5049 13.4C65.4514 13.4258 65.3982 13.4525 65.3452 13.4802C64.7979 13.7654 64.2778 14.1459 63.7849 14.6218C63.6358 14.7658 63.4891 14.9185 63.3449 15.08L63.7849 13H58.0249L54.9896 27.3177C54.7503 27.721 54.4716 28.0818 54.1534 28.4C53.5158 29.012 52.8417 29.3314 52.131 29.3582C52.0985 29.3594 52.066 29.36 52.0334 29.36C51.8805 29.36 51.7384 29.3528 51.6073 29.3383C51.5698 29.3341 51.5332 29.3294 51.4975 29.3241C51.1787 29.2765 50.9307 29.1819 50.7534 29.04C50.5134 28.8 50.3934 28.4133 50.3934 27.88C50.3934 27.6667 50.4067 27.4667 50.4334 27.28C50.46 27.0667 50.5 26.84 50.5534 26.6L53.4334 13H47.6734L44.9534 25.84ZM53.8734 9.92C54.5134 9.30667 54.8334 8.56 54.8334 7.68C54.8334 6.8 54.5134 6.05334 53.8734 5.44C53.26 4.8 52.5134 4.48 51.6334 4.48C50.7534 4.48 50.0067 4.8 49.3934 5.44C48.78 6.05334 48.4734 6.8 48.4734 7.68C48.4734 8.56 48.78 9.30667 49.3934 9.92C49.4206 9.94728 49.4482 9.97394 49.476 10C50.0734 10.56 50.7925 10.84 51.6334 10.84C52.3129 10.84 52.9129 10.6572 53.4334 10.2915C53.557 10.2046 53.6761 10.1075 53.7907 10C53.8186 9.97394 53.8461 9.94728 53.8734 9.92Z" fill="#F7C360"/>
</svg>
