<svg width="85" height="39" viewBox="0 0 85 39" fill="none" xmlns="http://www.w3.org/2000/svg">
<path fill-rule="evenodd" clip-rule="evenodd" d="M23.7622 12.8H23.4399C22.5754 12.8 21.6525 12.7362 20.6789 12.6182L20.6277 12.612L20.5767 12.6041C20.4445 12.5834 20.3081 12.5614 20.1677 12.538L19.8591 14H24.5195C24.8663 13.7455 25.2268 13.5093 25.6014 13.2923C27.4747 12.18 29.5511 11.64 31.7592 11.64C34.128 11.64 36.3798 12.4134 37.9418 14.3659C38.5377 15.1107 38.9699 15.9506 39.2728 16.8508C40.3523 15.3874 41.6485 14.1793 43.1796 13.2922C45.0529 12.18 47.1293 11.64 49.3374 11.64C51.7061 11.64 53.958 12.4134 55.52 14.3659C56.2629 15.2947 56.7515 16.3713 57.0522 17.5282C57.2816 17.4309 57.5064 17.3277 57.7267 17.2186C58.7858 15.7334 60.0376 14.4892 61.5061 13.5564C63.2912 12.3954 65.2807 11.8 67.4083 11.8C67.8195 11.8 68.2446 11.8217 68.6726 11.8763L70.1141 5.10982L82.3503 3.45628L77.7963 24.84H84.55L83.1614 28.8268C82.2333 31.4911 80.93 33.7742 79.106 35.4201C77.2085 37.1575 74.8727 38 72.2883 38C70.6887 38 69.1136 37.5725 67.7988 36.516C67.6272 36.6389 67.4516 36.7563 67.2721 36.8679C65.805 37.7799 64.1755 38.24 62.4483 38.24C60.0378 38.24 57.8534 37.3824 56.2505 35.5124L56.237 35.4966L56.2236 35.4806C55.4342 34.5333 54.9026 33.4476 54.5725 32.2802C54.2638 32.7748 53.9284 33.2508 53.5655 33.7072C51.3116 36.5417 48.3396 38.16 44.7774 38.16C42.2038 38.16 39.7537 37.494 37.9224 35.7074C37.2052 35.0077 36.6624 34.2101 36.2662 33.3455C36.1751 33.4674 36.0822 33.5879 35.9874 33.7072C33.7334 36.5417 30.7614 38.16 27.1992 38.16C24.6257 38.16 22.1755 37.494 20.3443 35.7074C18.4874 33.8958 17.7992 31.4275 17.7992 28.84C17.7992 27.0043 18.089 25.116 18.6313 23.1878L18.6371 23.167L18.6433 23.1462C18.6618 23.084 18.6805 23.0219 18.6994 22.96H17.9424L14.7024 38H2.80424L6.21074 22.1977C4.84389 22.0311 3.47641 21.5839 2.37214 20.607L2.32636 20.5665L2.28227 20.5242C0.806566 19.1075 0.359863 17.185 0.359863 15.4C0.359863 11.3617 1.92648 7.95148 5.06349 5.48336C8.17287 3.03121 12.2791 2.00003 16.9999 2.00003C17.3422 2.00003 17.7174 2.01867 18.1099 2.04887M5.53796 9.15273C4.0859 10.8354 3.35986 12.9179 3.35986 15.4C3.35986 16.6004 3.63003 17.5198 4.17035 18.1582C4.20875 18.2036 4.24851 18.2475 4.28964 18.2901C4.31262 18.3138 4.33603 18.3372 4.35986 18.36C4.39683 18.3927 4.43494 18.4246 4.47419 18.4555C4.9539 18.834 5.60355 19.0821 6.42313 19.2C6.55957 19.2197 6.70072 19.2357 6.84658 19.2481C6.86045 19.2493 6.87436 19.2504 6.88832 19.2515C6.9023 19.2526 6.91632 19.2537 6.93039 19.2548C7.11939 19.2689 7.3161 19.2771 7.52053 19.2794C7.56002 19.2798 7.5998 19.28 7.63986 19.28C7.63986 19.2534 7.62653 19.2267 7.59986 19.2C7.59986 19.1467 7.5732 19.0667 7.51986 18.96C7.35986 18.6134 7.23986 18.2534 7.15986 17.88C7.15741 17.8629 7.15502 17.8456 7.15268 17.8281C7.10414 17.4661 7.07986 17.0434 7.07986 16.56C7.07986 16.4581 7.0804 16.3572 7.08148 16.2572C7.10653 13.94 7.42179 12.1451 8.02727 10.8727C8.1065 10.7062 8.19069 10.5486 8.27986 10.4C8.3758 10.2453 8.47856 10.099 8.58815 9.96114C8.58899 9.96008 8.58983 9.95902 8.59068 9.95796C8.69759 9.82372 8.81099 9.69749 8.93087 9.57929C9.74685 8.77471 10.8632 8.34163 12.2799 8.28003L6.51986 35H12.2799L15.5199 19.96H21.3599L21.9999 17H16.1599L17.8399 9.04003C19.1199 9.3067 20.1865 9.5067 21.0399 9.64003C21.9199 9.7467 22.7199 9.80003 23.4399 9.80003C24.0532 9.6667 24.5732 9.4667 24.9999 9.20003C25.3627 8.96526 25.6743 8.67923 25.9346 8.34196C25.9552 8.31528 25.9755 8.28828 25.9954 8.26096C26.0384 8.20214 26.0799 8.14183 26.1199 8.08003C26.4132 7.6267 26.6665 7.01336 26.8799 6.24003C27.0932 5.4667 27.2132 5.05336 27.2399 5.00003C26.7332 5.16003 26.1865 5.28003 25.5999 5.36003C25.1419 5.42249 24.6432 5.46056 24.1039 5.47426C24.1039 5.47426 24.104 5.47426 24.1039 5.47426C24.0623 5.47532 24.0204 5.47623 23.9782 5.477C23.8671 5.47902 23.7543 5.48003 23.6399 5.48003C23.1599 5.48003 22.6265 5.4667 22.0399 5.44003C21.4799 5.3867 20.6665 5.3067 19.5999 5.20003C18.7999 5.12003 18.2265 5.0667 17.8799 5.04003C17.5332 5.01336 17.2399 5.00003 16.9999 5.00003C15.8012 5.00003 14.6764 5.07292 13.6255 5.21869C13.1192 5.28892 12.6301 5.37607 12.1581 5.48013C10.0792 5.93852 8.33309 6.72516 6.91986 7.84003C6.51126 8.16141 6.13783 8.50215 5.79957 8.86225C5.78964 8.87283 5.77973 8.88342 5.76986 8.89403C5.6906 8.97919 5.61331 9.06542 5.53796 9.15273ZM22.2494 2.4464C22.7703 2.4692 23.233 2.48003 23.6399 2.48003C24.2521 2.48003 24.7672 2.44581 25.1945 2.38754C25.6312 2.328 26.0095 2.24252 26.3365 2.13928L33.0907 0.00634766L30.0251 6.13772C30.0207 6.15269 30.016 6.16892 30.0109 6.18646C29.9565 6.37369 29.8774 6.6551 29.7718 7.03782C29.5127 7.97727 29.1576 8.9077 28.6386 9.70979C28.115 10.5189 27.4387 11.1952 26.6296 11.7187L26.6098 11.7315L26.5899 11.744C25.808 12.2327 24.9478 12.5423 24.0772 12.7316L23.7622 12.8M22.2494 2.4464C21.6995 2.39381 20.9166 2.31674 19.8984 2.21492C19.0972 2.13481 18.494 2.07841 18.1099 2.04887M23.5592 19.44C23.3765 19.7255 23.2017 20.0196 23.0349 20.3222C22.5846 21.1391 22.1922 22.0184 21.8576 22.96C21.7373 23.2986 21.6245 23.6453 21.5192 24C21.0392 25.7067 20.7992 27.32 20.7992 28.84C20.7992 30.92 21.3459 32.4934 22.4392 33.56C23.5326 34.6267 25.1192 35.16 27.1992 35.16C29.7326 35.16 31.8792 34.0534 33.6392 31.84C34.3294 30.9721 34.9088 29.9976 35.3776 28.9164C35.3886 28.891 35.3995 28.8656 35.4104 28.84C36.0066 27.4431 36.4196 25.8697 36.6495 24.12C36.6833 23.8628 36.7131 23.6017 36.739 23.3368C36.7402 23.3248 36.7413 23.3129 36.7425 23.3009C36.7483 23.2408 36.7539 23.1805 36.7592 23.12C36.8531 23.1049 36.9464 23.0892 37.0392 23.0727C37.1331 23.0561 37.2264 23.0387 37.3192 23.0207C38.1392 22.8612 38.9171 22.6471 39.6529 22.3783C39.5294 22.6935 39.4128 23.0161 39.303 23.3461C39.2397 23.5364 39.1787 23.7291 39.12 23.9243C39.1124 23.9495 39.1049 23.9748 39.0974 24C38.9256 24.6109 38.7845 25.2098 38.6742 25.7968C38.4763 26.8497 38.3774 27.8641 38.3774 28.84C38.3774 29.0537 38.3831 29.262 38.3947 29.465C38.4954 31.2379 39.0363 32.6029 40.0174 33.56C41.1107 34.6267 42.6974 35.16 44.7774 35.16C47.3107 35.16 49.4574 34.0534 51.2174 31.84C52.8114 29.8354 53.8148 27.2621 54.2276 24.12C54.2706 23.7929 54.3072 23.4595 54.3374 23.12C54.4312 23.1049 54.5246 23.0892 54.6174 23.0727C54.7112 23.0561 54.8046 23.0387 54.8974 23.0207C54.9346 23.0134 54.9718 23.0061 55.0089 22.9986C56.2409 22.7504 57.3771 22.3776 58.4174 21.88C58.42 21.8788 58.4226 21.8776 58.4252 21.8764C58.4914 21.8453 58.5568 21.814 58.6215 21.7824C58.582 21.8756 58.5432 21.9693 58.5051 22.0636C58.5048 22.0643 58.5046 22.065 58.5043 22.0657C58.5036 22.0674 58.5029 22.0692 58.5021 22.0709C58.3044 22.5608 58.1252 23.0663 57.9645 23.5876C57.9103 23.7633 57.8583 23.9408 57.8083 24.12C57.6825 24.5716 57.5741 25.018 57.4832 25.4593C57.2466 26.6076 57.1283 27.7212 57.1283 28.8C57.1283 30.8534 57.595 32.44 58.5283 33.56C59.4883 34.68 60.795 35.24 62.4483 35.24C63.621 35.24 64.7005 34.9337 65.6867 34.321C65.6873 34.3207 65.6878 34.3204 65.6883 34.32C65.7931 34.2549 65.8968 34.1863 65.9994 34.1143C66.8166 33.5409 67.5671 32.7483 68.251 31.7367C68.2582 31.726 68.2655 31.7152 68.2727 31.7045C68.3047 31.6568 68.3366 31.6087 68.3683 31.56C68.3827 31.6584 68.3992 31.7549 68.4177 31.8494C68.4228 31.8754 68.428 31.9014 68.4334 31.9271C68.5082 32.2831 68.6128 32.6108 68.7472 32.9103C68.9597 33.3842 69.2467 33.7874 69.6083 34.12C69.7335 34.226 69.8652 34.3223 70.0034 34.4091C70.6308 34.8031 71.3924 35 72.2883 35C73.4174 35 74.4421 34.7867 75.3626 34.3599C75.3779 34.3528 75.3931 34.3457 75.4083 34.3385C76.0138 34.052 76.5738 33.6726 77.0883 33.2C77.6004 32.7391 78.0751 32.1917 78.5125 31.5578C78.6698 31.3297 78.8223 31.0905 78.9699 30.84C79.4092 30.095 79.8056 29.2509 80.1593 28.3077C80.2167 28.1544 80.2731 27.9985 80.3283 27.84H78.6483C78.3016 28.96 77.8483 29.8267 77.2883 30.44C76.7347 31.0463 76.116 31.3529 75.4322 31.3599C75.4242 31.36 75.4163 31.36 75.4083 31.36C75.405 31.36 75.4018 31.36 75.3985 31.36C75.1292 31.3595 74.8938 31.3363 74.6923 31.2905C74.4587 31.2374 74.2707 31.1539 74.1283 31.04C73.8883 30.8 73.7683 30.4134 73.7683 29.88C73.7683 29.6667 73.7816 29.4667 73.8083 29.28C73.835 29.0667 73.875 28.84 73.9283 28.6L78.5283 7.00003L72.6083 7.80003L70.6483 17V16.84C70.6483 16.8136 70.6478 16.7874 70.6469 16.7615C70.6445 16.6983 70.6394 16.6365 70.6314 16.5763C70.5631 16.0629 70.2888 15.6575 69.8083 15.36C69.4962 15.152 69.1095 15.0019 68.6483 14.9098C68.4594 14.872 68.2581 14.844 68.0442 14.8258C67.8433 14.8086 67.6313 14.8 67.4083 14.8C66.9362 14.8 66.4753 14.8398 66.0256 14.9193C65.0672 15.0887 64.1595 15.4387 63.3027 15.9691C63.2443 16.0053 63.1862 16.0422 63.1283 16.08C62.2541 16.6331 61.4515 17.3533 60.7205 18.2406C60.5811 18.4099 60.4443 18.5852 60.3101 18.7665C60.2453 18.854 60.1812 18.9429 60.1177 19.0333C60.0067 19.1911 59.8975 19.3533 59.7902 19.5198C59.7272 19.5553 59.664 19.5904 59.6005 19.625C59.5998 19.6254 59.5992 19.6257 59.5985 19.6261C59.2078 19.8392 58.8063 20.036 58.3939 20.2166C58.2171 20.2941 58.0382 20.3685 57.8574 20.44C57.8251 20.4528 57.793 20.4654 57.761 20.4778C57.757 20.4793 57.7529 20.4809 57.7489 20.4824C57.6487 20.5211 57.5497 20.5581 57.452 20.5933C56.8566 20.8076 56.3075 20.9565 55.8045 21.04C55.7611 21.0472 55.718 21.054 55.6753 21.0602C55.4019 21.1001 55.1426 21.12 54.8974 21.12H54.6174L54.4574 21.04C54.4574 20.6984 54.4464 20.3704 54.4245 20.0561C54.3611 19.1452 54.2058 18.3493 53.9585 17.6682C53.7584 17.1169 53.498 16.6408 53.1774 16.24C53.1519 16.2083 53.1261 16.1769 53.1 16.1461C53.0674 16.1078 53.0342 16.0701 53.0005 16.0332C52.2088 15.1677 51.0944 14.7054 49.6574 14.6465C49.5524 14.6422 49.4458 14.64 49.3374 14.64C48.4439 14.64 47.5943 14.7533 46.7886 14.9799C46.3622 15.0997 45.9482 15.2513 45.5464 15.4346C45.257 15.5666 44.974 15.7151 44.6974 15.88C43.9499 16.3112 43.2606 16.8548 42.6294 17.5107C42.4361 17.7115 42.2482 17.9229 42.0658 18.1449C41.7388 18.5427 41.4293 18.9744 41.1374 19.44C41.121 19.4656 41.1047 19.4913 41.0885 19.517C40.9768 19.6937 40.8682 19.8737 40.7626 20.0569C40.7166 20.1367 40.6712 20.2171 40.6264 20.2981C40.5115 20.3466 40.3958 20.394 40.2792 20.44C40.247 20.4528 40.2149 20.4654 40.1828 20.4778C40.1788 20.4793 40.1748 20.4809 40.1708 20.4824C40.0706 20.5211 39.9716 20.5581 39.8738 20.5933C39.2785 20.8076 38.7293 20.9565 38.2263 21.04C37.9051 21.0934 37.6028 21.12 37.3192 21.12H37.0392L36.8792 21.04C36.8792 20.6984 36.8683 20.3704 36.8464 20.0561C36.783 19.1452 36.6276 18.3493 36.3804 17.6682C36.1802 17.1169 35.9199 16.6408 35.5992 16.24C35.5738 16.2083 35.548 16.1769 35.5218 16.1461C35.4893 16.1078 35.4561 16.0701 35.4224 16.0332C34.6307 15.1677 33.5163 14.7054 32.0792 14.6465C31.9743 14.6422 31.8676 14.64 31.7592 14.64C30.8658 14.64 30.0162 14.7533 29.2104 14.9799C28.477 15.1861 27.78 15.4861 27.1192 15.88C26.3242 16.3387 25.5949 16.9245 24.9314 17.6373C24.4376 18.1678 23.9802 18.7687 23.5592 19.44ZM33.4973 18.5333C33.4614 18.3433 33.4178 18.1743 33.3664 18.0263C33.3076 17.8566 33.2385 17.7145 33.1592 17.6C33.0183 17.3711 32.8134 17.2177 32.5445 17.14C32.4063 17.1 32.2512 17.08 32.0792 17.08C31.9721 17.08 31.8654 17.0891 31.7592 17.1072C31.6701 17.1224 31.5814 17.144 31.4929 17.172C31.1625 17.2764 30.8368 17.4698 30.5156 17.7522C29.8007 18.3807 29.1086 19.45 28.4392 20.96C27.3192 23.5467 26.7592 26 26.7592 28.32C26.7592 29.5734 26.8926 30.4267 27.1592 30.88C27.4526 31.3334 27.9992 31.56 28.7992 31.56C29.7859 31.56 30.7192 30.76 31.5992 29.16C32.5059 27.56 33.1192 25.5867 33.4392 23.24C33.0659 23.16 32.7859 22.9867 32.5992 22.72C32.4392 22.4267 32.3592 22.04 32.3592 21.56C32.3592 21.0534 32.4659 20.6134 32.6792 20.24C32.8926 19.8667 33.1992 19.5867 33.5992 19.4C33.5789 19.0742 33.5449 18.7853 33.4973 18.5333ZM51.0754 18.5333C51.0396 18.3433 50.9959 18.1743 50.9446 18.0263C50.8857 17.8566 50.8166 17.7145 50.7374 17.6C50.5965 17.3711 50.3915 17.2177 50.1227 17.14C49.9845 17.1 49.8294 17.08 49.6574 17.08C49.5502 17.08 49.4436 17.0891 49.3374 17.1072C49.2483 17.1224 49.1595 17.144 49.0711 17.172C48.7407 17.2764 48.4149 17.4698 48.0937 17.7522C47.6699 18.1248 47.2542 18.6523 46.8464 19.3346C46.5663 19.8034 46.2899 20.3452 46.0174 20.96C45.9263 21.1703 45.8389 21.3798 45.7553 21.5883C45.641 21.8733 45.5336 22.1565 45.4331 22.4382C44.7026 24.4858 44.3374 26.4464 44.3374 28.32C44.3374 29.5734 44.4707 30.4267 44.7374 30.88C45.0307 31.3334 45.5774 31.56 46.3774 31.56C47.364 31.56 48.2974 30.76 49.1774 29.16C50.084 27.56 50.6974 25.5867 51.0174 23.24C50.644 23.16 50.364 22.9867 50.1774 22.72C50.0174 22.4267 49.9374 22.04 49.9374 21.56C49.9374 21.0534 50.044 20.6134 50.2574 20.24C50.4707 19.8667 50.7774 19.5867 51.1774 19.4C51.157 19.0742 51.123 18.7853 51.0754 18.5333ZM64.6791 31.337C64.7953 31.3524 64.9184 31.36 65.0483 31.36C65.6636 31.36 66.2675 31.0988 66.8601 30.5764C66.9096 30.5328 66.959 30.4873 67.0083 30.44C67.6483 29.8 68.0883 29 68.3283 28.04V27.84L70.2883 18.68C70.2083 18.2534 70.0216 17.92 69.7283 17.68C69.4616 17.4134 69.1016 17.28 68.6483 17.28C68.6387 17.28 68.6292 17.2801 68.6196 17.2802C68.5885 17.2805 68.5574 17.2814 68.5264 17.2829C68.2806 17.2944 68.0394 17.3407 67.8027 17.422C67.6698 17.4676 67.5383 17.5242 67.4083 17.5918C67.2855 17.6556 67.164 17.7292 67.0438 17.8127C66.2106 18.3909 65.4387 19.4401 64.7283 20.96C63.6083 23.4134 63.0483 25.84 63.0483 28.24C63.0483 29.28 63.195 30.0667 63.4883 30.6C63.7306 31.0185 64.1275 31.2642 64.6791 31.337Z" fill="#F7C360"/>
</svg>
