<svg width="16" height="16" viewBox="0 0 16 16" fill="none" xmlns="http://www.w3.org/2000/svg">
<path d="M6.0376 1.31617L6.6866 2.47911C7.2723 3.52859 7.0372 4.90533 6.1147 5.82781C6.1147 5.82781 4.99588 6.94682 7.0245 8.97552C9.0525 11.0035 10.1722 9.88532 10.1722 9.88532C11.0947 8.96282 12.4714 8.72772 13.5209 9.31342L14.6838 9.96242C16.2686 10.8468 16.4557 13.0692 15.0628 14.4622C14.2258 15.2992 13.2004 15.9505 12.0669 15.9934C10.1588 16.0658 6.9183 15.5829 3.6677 12.3323C0.417132 9.08172 -0.0657879 5.84123 0.00655207 3.9331C0.049522 2.79961 0.700802 1.77423 1.53781 0.937232C2.93076 -0.455721 5.15317 -0.26856 6.0376 1.31617Z" fill="#1C3A33"/>
</svg>
